<?xml version="1.0" encoding="UTF-8"?>
<!DOCTYPE svg PUBLIC "-//W3C//DTD SVG 1.1//EN" "http://www.w3.org/Graphics/SVG/1.1/DTD/svg11.dtd">
<svg xmlns="http://www.w3.org/2000/svg" version="1.1" width="512px" height="512px" style="shape-rendering:geometricPrecision; text-rendering:geometricPrecision; image-rendering:optimizeQuality; fill-rule:evenodd; clip-rule:evenodd" xmlns:xlink="http://www.w3.org/1999/xlink">
<g><path style="opacity:0.971" fill="#000000" d="M 511.5,281.5 C 511.5,285.5 511.5,289.5 511.5,293.5C 509.353,297.811 506.02,300.978 501.5,303C 460.167,303.667 418.833,303.667 377.5,303C 373,301.167 369.833,298 368,293.5C 362.198,273.096 356.198,252.763 350,232.5C 323.667,311.5 297.333,390.5 271,469.5C 268.193,476.487 263.027,479.82 255.5,479.5C 247.973,479.82 242.807,476.487 240,469.5C 213.539,355.529 187.206,241.529 161,127.5C 149.621,181.397 138.621,235.397 128,289.5C 127.116,296.049 123.616,300.549 117.5,303C 81.5,303.667 45.5,303.667 9.5,303C 4.98004,300.978 1.6467,297.811 -0.5,293.5C -0.5,289.5 -0.5,285.5 -0.5,281.5C 1.6467,277.189 4.98004,274.022 9.5,272C 39.0718,271.829 68.5718,271.329 98,270.5C 113.205,194.139 128.539,117.806 144,41.5C 149.164,31.618 156.997,28.7846 167.5,33C 171.058,34.8917 173.558,37.7251 175,41.5C 202.681,161.224 230.515,280.89 258.5,400.5C 284.898,322.139 311.398,243.806 338,165.5C 344.98,159.014 352.814,157.847 361.5,162C 364.106,163.938 365.939,166.438 367,169.5C 376.641,203.419 386.474,237.253 396.5,271C 431.5,271.333 466.5,271.667 501.5,272C 506.02,274.022 509.353,277.189 511.5,281.5 Z"/></g>
</svg>
